<?xml version="1.0" encoding="UTF-8"?>
<svg id="Layer_1" xmlns="http://www.w3.org/2000/svg" version="1.1" viewBox="0 0 900 130">
  <!-- Generator: Adobe Illustrator 29.8.4, SVG Export Plug-In . SVG Version: 2.1.1 Build 6)  -->
  <defs>
    <style>
      .st0 {
        fill: #231f20;
      }

      .st1 {
        fill: #b4121b;
      }

      .st2 {
        fill: #fff;
      }

      .st3 {
        fill: #b0b7bb;
      }

      .st4 {
        fill: #6a747c;
      }
    </style>
  </defs>
  <path class="st3" d="M900,50v8.7c0,16.1-7.9,51.7-46.7,70.7-38.8-19-46.7-54.6-46.7-70.7v-8.7s93.4,0,93.4,0Z"/>
  <path class="st1" d="M853.3,11.1s30.5-.4,46.7,6v32.9h-93.4V17.1c16.2-6.4,46.7-6,46.7-6"/>
  <path class="st2" d="M830.3,21.3c.4.3.9.6,1.3.7.5.1.9.2,1.4.2.9,0,1.7-.2,2.6-.3.8-.1,1.6-.3,2.5-.3s1.7.2,2.3.7c-.6-.6-1.5-.9-2.3-1-.9-.1-1.7-.1-2.6,0-.8,0-1.7.1-2.5,0s-1.5-.4-1.9-.9h0c-.3-.3-.7-.3-.9,0,0,.2,0,.6.2.9h0ZM851.5,45.9c-.3.4-.4.9-.4,1.2h0s0,0,0,0c0-.2.2-.4.4-.5,0-.2,0-.3,0-.6q0,0,0,0M852.3,44.4c-.2-.3-.4-.7-.4-1.2v-.2h-.9c0,0-.1,0-.2,0,0,0,0,.2-.2.5,0,0,0,.4,0,.5s0,.2,0,.2c0,0,0,0,.2.2.4.2.8.2,1,.2h0c0,0,.2,0,.3,0,0,0,0,0,.2-.2M852.4,45.1c0,0-.2,0-.2.2h0c0,.2,0,.2,0,.2v.2c0,0,0,.3,0,.4,0,0,.3.3.6.4.2,0,.4,0,.6,0,.3,0,.5,0,.6-.3s.2-.3.2-.5c-.5-.2-1-.6-1.4-1,0,0-.2.2-.3.3M849.3,43.7c0,.2-.2.3-.3.5h0c.3-.4.6-.5.9-.5,0,0,0-.2,0-.3h0c0,0,0-.2,0-.2-.4,0-.7.2-.9.5M868.7,39.9c-.3,0-.6,0-1-.3-.6-.4-1.1-1.1-1.1-1.7s.4-1.4.9-2c.4-.4.8-.8,1.2-1,0,0-1.5-1.5-1.6-1.6-.5-.4-1-.8-1.6-1-.7-.2-1.3,0-1.9.3-.4.2-.8.4-1.1.6-1.5.9-2.2,2.6-2.4,3.2,0,0,.1-.1.2-.2.2-.2.5-.4.7-.4h.2c0,0,.2,0,.3,0,0,0,0,.2,0,.2v.2s0,0,0,.2c0,0,0,.3,0,.5,0,.4-.2.8-.2,1.3.3-.4.6-.7.6-.8h0c0,0,0-.2.2-.2,0,0,0,0,0,0h0v.3c0,.6,0,1.1.2,1.6s.4.8.2,1.3c-.2.4-.6.8-1,1-.2.2-.5.3-.8.3s-.8,0-1.2,0c-.5.2-1,.6-1.5.7-.2,0-.3,0-.5,0-.6,0-1.4-.2-1.9-.7-.2-.3-.3-.5-.3-.8,0-.7.6-1.3.6-1.3h0c0,0-1.7,0-1.7,0,0,0-.4,0-.6.2h0c0,.2-.2.3-.2.5,0,.2,0,.6,0,1s-.3.9-.3,1.2v.2c0,.5.2.8.4,1,.6.8,1.6,1.2,2.5,1.5,1,.3,1.9.4,2.2.4h0c0,0,1.6-.4,2.2-.5.5,0,1.8-.2,2.3-.3l-.8-.4s0,0,0,0c0,0,0,0,0-.2h0c0-.2,0-.2.2-.3h3c.7,0,1-.4,1.2-.5h0c0,0-.3,0-.4,0s-.3,0-.4-.2h0c0-.2,0-.2,0-.3h0c0,0,0,0,0,0h0c0,0,.2-.2.2-.2,0,0,.3,0,.6,0s.7,0,1.1-.3c.4-.2,1-.5,1.2-.7,0,0-.2,0-.3,0-.2,0-.5-.2-.7-.4h0c0-.2,0-.2,0-.3h0c0-.2,0-.2,0-.2,0,0,0,0,0,0h.4c0,0,.3,0,.5,0,.4,0,.8-.2,1.1-.4.2,0,.3-.2.3-.3h0c-.8.2-.9.2-1,.2M888.1,43.1c0,0,0-.3,0-.4,0-.4.2-.6.4-.9,0,0,0,0,0,0,.2-.3.3-.6.3-1s-.2-1.1-.8-1.7c0,0,0,0,0-.5s0-.6.3-1.1.4-.9.4-1.3,0-.4-.2-.6c0,.3-.2,1.1-.7,1.1s-.3-.5-.3-.7v-1c0-.5,0-1-.2-1.4,0,.3-.2.5-.3.7,0,0-.1,0-.2,0,0,0-.2,0-.2,0,0,0,0-.2,0-.2,0-.2,0-.3,0-.3,0,0,0-.4-.2-.8,0-.4-.2-.9-.3-1.1,0,.2,0,.3,0,.5,0,.2,0,.6-.4.6s-.3-.2-.3-.3c0-.2,0-.4,0-.6,0-.3-.2-.7-.3-1,0-.2,0-.3-.2-.3,0,0,0,.1,0,.1,0,.1,0,.3-.3.5-.2.4-.6.8-1,1.1-.8.6-1.5.7-2,.7-.8,0-2.2-.3-3.4-1.1-.7-.4-1.9-1.1-2.6-1.7l-.2-.2h1.1c1.2,0,2.4-.1,3.3-.5,1-.5,1.6-1.2,2-1.8.5-.7.9-1.3,1.8-1.8.6-.3,1.1-.4,1.7-.4s1.2.1,1.4.2c-.2-.8-1.2-1.5-2.4-1.5s-1.8.4-2.7,1.3h0c0,.1,0-.1,0-.1h0c0-.2,0-.3,0-.5,0-.3-.2-.7-.5-1.1-.6-.8-1.7-1.6-4.1-1.6h-.6c-1.9.1-5.5,1.2-8.7,1.9-3.2.6-7.9.9-9.9.9s-1.5-.1-2.2-.2c-.7-.2-1.2-.4-1.5-.8-.2-.3-.4-.6-.4-.9,0-.7.4-1.2.9-1.4.5-.2,1.1-.3,1.6-.3,1.6,0,3.7,1,5.4,1.6,1.2.4,2.4.5,3.1.5,1.8,0,4-1,5.2-1.4.9-.4,1.7-.6,3-.6h1c-.5-.5-1.5-1.1-2.9-1.1s-1.9.2-3,.8h0c0-.2,0-.3,0-.4,0-.3,0-.6.4-.9.2-.3.6-.5,1-.7-.3-.1-.7-.3-1.3-.4-.7-.2-1.5-.3-2.4-.3h-.3c-1.5,0-2.5.4-3.5.8s-2,.7-3.4.7h-1.2c-1.4,0-2.6.2-3.5.6s-1.4,1.1-1.4,2.2.5,1.7,1.5,2.3c1,.6,2.4.9,4.2.9h0c4.5,0,9.8-1.1,13.1-1.6,1.1-.2,3.4-.8,5.3-.8s1.7.1,2.3.5,1,1,1,1.9,0,1-.5,1.5-1.1.8-2.2.8-2.8-.4-4.6-.6h0c-.4-.1-.8-.1-1.2-.2-2.6-.3-6.1-.6-8-.6h-.5c-1.5,0-4.3.2-6.9.6-2.8.4-5.3,1-6.1,1.2v2.6l-.7-1.1h0c0,1.2-.2,2.1-.4,2.6,0,.3-.2.6-.3.7,0,0,0,0,0,0l-.6,1.1-.5-.9c-.2,1.1-.6,2.1-1.4,2.9s-.5.5-.9.8h0c0,.2-.2.3-.3.3l-1.1.6v-1.9c-.2.3-.4.5-.7.7-.5.4-.9.6-1.4.6s-.3,0-.5,0l-.9-.3.5-.8c0,0,0-.2.2-.4.2-.4.2-.6.2-.7h0c0-.2-.2-.2-.5-.2h-.4c-.6,0-1.6.4-3.6,1.4s-2,1.1-3,1.7c-.6.4-1.3.8-1.9,1.1-.9.5-1.9.9-3,1.1-.3,0-.6,0-.9,0-.5,0-.9,0-1.1-.4-.5,0-.9-.2-1.2-.3-.4-.2-.8-.5-1.1-.7-.2-.2-.4-.4-.5-.6-.5.5-1,1.1-1,1.8v.9h.3c2.1,0,3.2-.3,3.3-.3h0c0,0,.2,0,.3.2h0c0,.2,0,.3-.2.4,0,0-1.2.4-3.4.4h-.2c0,.6.2,1.1.5,1.5.3.5.8.6,1,.6h0c1.7-1.2,2.8-1.5,2.8-1.6h0c0,0,.2,0,.3.2h0c0,.2,0,.3-.2.4h0s0,0-.2,0c-.2,0-.4.2-.8.4-.2,0-.5.3-.7.4h0c0,0,0,.2,0,.3.2.4.5.8.7,1.1,0,.2.4.4.7.4s.6-.2,1.1-.8c.3-.3.6-.6,1.2-.6h1.5c0,0,0,0,0,0,0,0,.2,0,.3,0,.2,0,.4-.2.6-.4,0-.2.2-.3.3-.3,0,0,.3,0,.4,0,.3,0,.6,0,1,.2.6.2,1.2.3,1.5.3h.3s0,0-.2-.2c0,0-.3-.3-.4-.5,0,0,0-.2,0-.3s0,0,0-.2c0,0,.2,0,.3,0s.2,0,.3,0c0,0,0,0,0,0,.6.5,1.8.8,2.8.8s.5,0,.7,0c-.2,0-.4-.2-.6-.4,0,0-.2-.2-.2-.3s0,0,0-.2c0,0,.2,0,.3,0,.3,0,.7,0,.7,0h.2c0,0,.3,0,.4,0,.4,0,.8,0,1.3,0s1,0,1.2-.3c-.5-.4-.8-.8-.8-.8,0,0,0,0,0-.3s0-.1,0-.2c0,0,.2,0,.2,0,.2,0,.4,0,.4,0,0,0,0,0,.2,0,0,0,.3,0,.5.2.4,0,1,.2,1.6.2s.9,0,1.2-.3c-.4-.2-.6-.4-.6-.4,0,0,0,0,0-.2v-.2c0,0,0,0,.2-.2h.8c.9,0,1.4-.3,1.6-.4l-.9-1.1c0,0,.4-.2.4-.2,0,0,.3-.2.4-.2.3,0,.8-.2,1.4-.4,1.2-.4,2.8-1,4.5-1.9,3.2-1.8,6.4-4,9.6-4.8.8-.2,1.6-.3,2.3-.3s1.7.1,2.3.2,1.3.6,2,1.3,1.4,1.5,2.1,2.2c.7.8,1.4,1.4,1.6,1.6h0c0,0,0,.2.3.3.2,0,.4.3.7.4.5.3,1.1.6,1.7.7,0-.2-.3-1.4.2-1.1.2,0,.3.3.5.5s.4.4.7.5c.4.3.8.5,1.2.5s.2,0,.4,0c-.2-.3-.4-.5-.4-.5,0,0,0,0,0-.2s0-.2,0-.2.2,0,.4,0h.9c.5,0,1.3,0,1.9,0,.9-.2,1.7-.4,2-.5,0,0,.2,0,.2,0,0,0,.2,0,.5,0s.3,0,.4,0c.2,0,.3.3.4.6,0,.2.2.4.2.6.3.6.8,1.4.8,2.6v.6c0,.3,0,1-.5,1.5-.6.8-1.2.9-1.3.9h-.7c-.4,0-.8-.3-1.1-.3s-.2,0-.3,0c-.3.2-.4.4-.4.7s0,.5.2.6h0c0,.2,0,.2,0,.3,0,.2.4.3.7.3h0c.3,0,.6-.2.8-.4s.4-.4.5-.5h0l.5-.8h0c0,0,0-.2.2-.2h0c0,0,0,.2,0,.2v.2s0,0,0,.2c0,0,0,.2-.2.3-.2.2-.3.4-.3.4h0c0,.2,0,.2,0,.3.2,0,.3.3.4.5,0,0,.2.3.4.3.4,0,.7-.3.9-.6.2-.2.3-.4.4-.6,0-.3,0-.7,0-1v-.9c0,0,0,0,.2,0h0c0,0,.2,0,.2,0v1.2c0,.3,0,.5,0,.7v.2h0c0,0,1.5,0,1.5,0,0,0,.2,0,.4,0,0,0,.3-.3.3-.6v-.2c0-.3,0-.4-.2-.6-.4,0-.6,0-.6,0M850.7,42.2s0,0,0,0c0,.1,0,.2,0,.2,0,0,.2,0,.5,0h.3c.2,0,.3,0,.4,0,0,0,0-.2,0-.3,0-.2,0-.4.2-.5v-.8c-.2-.2-.5-.4-.6-.5s-.2,0-.3,0-.2,0-.4,0c0,0-.3.2-.4.3,0,0-.2.2-.2.3s0,0,0,.2c.2.3.2.5.2.7v.4M850.1,40.1c-.5,0-.8.2-1,.4h.4c.2,0,.5,0,.6,0,0-.2.3-.3.4-.4,0,0-.2,0-.4,0M823.7,44.6c-.4.4-.5.8-.5,1.2s0,.4,0,.5v-.2c0-.5.4-.8.7-1,0,0,0-.2-.2-.3,0,0,0-.2,0-.2M887,45.6h0c0,0-.7,0-.7,0,.2.5.4.9.7,1,.3.2.7.2.9.2h0s0,0,0,0c-.7-.3-.9-.7-.9-1M883.1,45.5c0,0,0-.1,0-.2-.2.4-.3.7-.3,1,0,.6.3,1,.5,1.2v-.2c0-.2,0-.3,0-.5,0-.4.2-.7.3-.9h0v-.2c-.2,0-.3,0-.4-.2M854.9,39.5h.6c-.2-.5-.4-.8-.7-1s-.7-.3-.9-.3h-.2s0,0,0,0c.7.3.9.8,1,1h0v.2h.1ZM879.2,44.2c-.2.3-.2.7-.2.9h0s0,0,0,0c.3-.6.8-.8,1.1-.9v-.3c0,0,0-.2,0-.4h0c-.6.3-.9.6-1.1.8M881.2,41.7c0,.3.2.7.4.9,0,.2.4.2.6.3.2,0,.5,0,.7,0s.7,0,.5-.4c0,0-.2-.2-.3-.4s-.2-.4-.2-.5c0-.3-.2-.5-.2-.8s0-.2,0-.3c0,0-.1,0-.2,0,0,0-.2,0-.3.2-.4.5-.5.6-.7.7,0,0-.2,0-.2.3M881.3,40.5h0c0,0,.2-.2.4-.3,0,0,.1-.1.2-.2-.3,0-.5-.2-.8-.2s-.7.2-1,.4c0,0-.2.2-.3.3,0,0,0,0,0,0,.2,0,.5,0,.7,0,.3,0,.6,0,.7.2h0ZM824.3,36.5c-.3-.2-.6-.2-.8-.3h0c.6.5.7,1,.7,1.2h0s.3.2.5.4c.2-.7-.2-1.1-.6-1.3M821.4,38.8c-.4,0-.8.2-1,.4,0,0-.2.2-.3.3,0,0,0,0,0,0,.2,0,.5,0,.7,0s.4,0,.5,0c0-.2.2-.3.4-.5,0,0-.3,0-.4,0M825.2,39h0c0,0,0-.3-.2-.4-.2,0-.3-.3-.5-.4,0,0-.2-.2-.2-.2h0c0,0-.2,0-.3,0,0,0,0,0,0,0,0,0,0,0-.2,0-.2,0-.4.2-.6.4,0,0,0,0,0,.2.3.3.7.7,1.3,1,.2,0,.5.2.7.2v-.3c0-.5,0-.8,0-.8h0ZM821.9,22.8c.3.9,1.1,2.9,1.5,3.9,0,.3.2.5.2.5,0,0,.2.5.2,1s0,.5-.2.7c-.2.3-.4.5-.4.5h0s0,.1,0,.1c0,.1,0,.2,0,.4s0,.4.2.6c0,0,.2.3.3.6.2.3.4.7.5.9,0,0,0,0,0,.2s0,0,0,0h0v-1.1c0-.2,0-.3.3-.3s.2.1.3.2c0,.1,0,.4.2.7h0c0,.2,0,.2,0,.3,0,.2.2.4.4.7.3.5.9,1.1,1.6,1.4v-1.1h0c0,0,.1,0,0,0h0c0,0,0,.2,0,.2h0s0,0,0,.2c0,0,.2.2.3.4.2.3.6.8,1,1.3.8.8,1.7,1.7,2.6,1.9,0-.2,0-.5,0-.7,0-.5,0-1,.3-1.4,0,0-.2,0-.3.2l-1.2,1v-1.6c.2-1.6.7-3,1.7-4,.3-.3.6-.6,1-.8,0,0-.3-.1-.4-.1h-.5c-2.1-.4-5.2-1.3-8.1-4.1-.4-.3-.7-.9-.7-1.5s0-.7.3-1,.6-.6,1.2-.8h0c0,0,0-.1,0-.2s0-.3-.5-.6c-.5-.4-.8-.6-1-.8-.2-.2-.3-.2-.3-.2h0s0,0-.3.2c-.3.3-1.2,1-1.2,2,.3-.2.3-.1.3.1M839.6,17.6c.2.1.3.2.5.3h0s.2-.2.4-.4c0-.1.5-.3.4-.4,0-.2-1,0-1.2.1,0,0-.3.1-.3.1,0,0,0,0,0,.1h0c0,.1.2.1.2.2M836.1,19.4h0c0-.2,0-.4.2-.5,0-.2.4-.4.3-.6,0-.2-.2-.2-.2-.4s0-.2,0-.2c0-.1.2-.1.4-.2.4-.1,1.7-.6,1.7-.6,0-.1.2-.2.3-.4,0-.1.4-.3.9-.4,1.3-.3,4.9-.5,5.3-.5s.2.1.4.2c.2.2.5.4.7.7,0,.1.2.2.2.3h0c0,.1,0,.2,0,.2h0c0-.1,0-.1,0-.2h.3c0,0,.3,0,.5.1,0,.1.3.3.3.6s0,.3,0,.5c0,.9-.6,1.7-1,2.2h0c1.4,2.1,1.6,3.9,1.6,4.5-.2-.2-.4-.6-.4-.6,0,0,0-.1,0-.1,0,0-.1-.1-.2-.2h0c0,0-.1,0-.2.1,0,.1,0,.1,0,.2s0,.2,0,.3c.6,1.7.7,3.6.7,4.6h0c-.2-.3-.6-.8-.6-.8,0-.2-.2-.3-.4-.3s-.1,0-.2.1c0,.1,0,.1,0,.2h0c.3.9.4,1.7.4,2.4s-.2,1.7-.4,2.3c0,.3-.2.5-.3.7,0,0,0,0,0,0,0,0,0-.2-.2-.3,0-.2-.3-.5-.4-.8,0,0,0-.2,0-.3,0,0-.1,0-.2,0s-.1,0-.2,0c0,0,0,0,0,.2v.6c0,1.6-.6,2.7-1.3,3.4-.3.4-.6.6-.9.8,0,0-.2,0-.3.2v-2.3c0,0,0-.2,0-.3,0,0,0,0-.2,0s0,0,0,0c0,0,0,0,0,.2-.5,1-.9,1.6-1.3,2-.4.3-.7.4-1,.4h-.3c0,0,0-.2.2-.4,0-.3.3-.7.3-1s0-.5-.3-.7-.5-.3-1-.3h-.5c-1.1,0-2.6.8-3.9,1.5-1.1.5-1.9,1.1-2.2,1.2-.3-.5-.3-1-.3-1.4,0-.6.2-1.1.4-1.5,0-.2.2-.3.3-.4h0c0,0,0-.2,0-.2,0,0,0,0,0-.2s0,0,0-.2c0,0,0,0-.2,0-.5,0-1,.2-1.3.4-.2,0-.4.3-.5.4,0-1.7.7-2.8,1.4-3.5s1.4-1,1.6-1.1c0-.1.2-.1.3-.2s0-.1,0-.2h0c0-.2,0-.2,0-.2,0-.1-.3-.1-.3-.1,0,0-.4-.1-.8-.2-.2,0-.4-.1-.5-.1h0c1.1-1.4,2.8-1.7,3.7-1.7h.8c0,0,.2,0,.3-.1s0-.1,0-.2,0-.2,0-.2h0c0-.1-.2-.2-.7-.5,0-.1-.2-.1-.3-.2,0-.1,0-.1,0-.1h.5c.3,0,.6,0,.7.1.4.2.8.2,1.1.2.6,0,1-.2,1.3-.5s.4-.6.5-.8c0-.1,0-.3,0-.4,0-.3,0-.5-.4-.5s-.3-.1-.6-.1-.6.1-.8.3c-.2.2-.3.2-.4.2h0l-.6-.5c-.2-.1-.4-.1-.4-.2h0c0-.1,0-.1,0-.2.3-.2.5-.2.7-.2.3,0,.6.1,1.3.1h.3c.5,0,.8-.2,1-.4.2-.2.2-.5.2-.7,0-.3,0-.5,0-.6,0,0-.3-.9-1-2-.2-.3-.4-.4-.7-.4s-.7.2-1,.4c-.3.2-.4.4-.5.4-.2.2-.5.3-.7.3s-.5-.1-.6-.3c.3-.3.2-.6,0-.8M825.6,21.5c.3-.4.4-.8.4-1.1s0-.6-.3-.8c0-.1-.2-.2-.3-.3v.6c0,.5-.2.8-.3,1,.2.2.4.4.5.6M820.1,20.9c0,.2,0,.4.2.6,0,.1.2.6.2.6,0,0,0,0,0-.1h0c.2-.1.4-.2.6-.2s.2,0,.3.1c0-.2,0-.4.2-.6,0-.3.2-.5.2-.6v-.3c0-.2,0-.3,0-.4s-.2-.2-.3-.2h-.3c-.3.1-.8.2-1,.5-.2.2,0,.4,0,.6M821.3,19.3h0c.2,0,.4.1.5.2,0-.6-.3-.9-.5-1.1-.3-.2-.6-.3-.9-.3h-.2c0,0,0,.1.2.1.6.3.7.8.8,1.1M819.2,24.3v-.2c0-.1-.5-.3-.5-.3-.2,0-.4,0-.6.1-.2.2-.4.6-.4,1s0,.3,0,.4.2.2.5.3c.4.1.8.2,1.2.3,0-.5-.2-.9-.2-1.4,0,0,0-.1,0-.2M821.5,28.4c.6.5.9.7,1.1.7s.2-.1.3-.2,0-.2.2-.3c0-.1,0-.3,0-.4,0-.3,0-.6-.2-.7h0c0-.1-1.4-3.2-1.8-4.5,0-.2,0-.4,0-.4h0c0,0-.2,0-.4.1-.8.5-1.1,1.2-1.1,2,.2,1.4,1.3,3.1,2,3.7M820.3,43.1c0,.3-.2.6-.2.8h0c0,0,0,0,0,0,.2-.5.6-.7.9-.8,0-.2,0-.4,0-.6-.4,0-.6.4-.7.6M818,22c0,.1,0,.1,0,0h0v.4c0,.1,0,.3.3.4.3.2.8.5,1.2.8,0-.4.4-.7.7-1l-.6-1.2h0c0-.2-.1-.2-.2-.2,0,0-.2,0-.3.1-.5.2-.8.5-.9.7M817.7,23.6c-.2-.1-.5-.1-.7-.1-.5,0-.8.2-1,.5,0,.2-.2.4-.3.5,0,0,0-.1.2-.1.4-.2.7-.3.9-.3s.3,0,.4.1c.2-.3.4-.5.5-.6h0M816.7,20.8c0,0-.2,0-.2.1,0-.1.2-.2.3-.3.2-.2.5-.3.8-.3s.6.1,1,.4c0,0,0,.1-.2.1,0,.1-.2.2-.3.3,0-.1-.5-.3-1-.3,0-.1-.2-.1-.4,0"/>
  <path class="st2" d="M869.5,93.8c-3.2,2.1-14.6.9-15.8,6.1v12.3c4.5-5.3,16.4-4.8,19.6-6.9l-3.8-11.5ZM837.1,93.8l-3.9,11.6c3.2,2.1,15.2,1.6,19.7,6.9v-12.4c-1.2-5.2-12.6-4-15.8-6.1M840,110.3c-1.9,0-3.9,0-7.6-.7,0,.7-.2,1.3-.3,2,3.7.4,5.6,0,7.4-.2,1.9-.3,3.8-.6,7.8,0s2.7.4,3.6.6c-.8-.3-1.9-.6-3.3-.9-3.8-.8-5.7-.8-7.6-.7M856.6,111.1c.7-.3,1.6-.6,2.7-.9,3.7-1,5.6-.9,7.5-.8,1.8,0,3.6,0,7.2-.8,0-.7-.3-1.5-.4-2.2h0c-1.4.8-3.7,1.2-6.4,1.7-3.5.6-7.7,1.3-10.6,3M874.2,109.6c-3.8.8-5.7.7-7.6.7-2,0-3.8,0-7.6.7-1.4.3-2.4.6-3.3.9.9-.2,2.1-.4,3.6-.6,4-.4,5.9,0,7.8,0,1.8.3,3.7.5,7.4.2,0-.6-.2-1.3-.3-2M832.5,108.6c0-.7.3-1.5.4-2.2h0c1.4.8,3.7,1.2,6.4,1.7,3.5.6,7.6,1.4,10.6,3.1-.7-.3-1.6-.6-2.7-.9-3.7-1-5.6-.9-7.5-.8-1.7,0-3.6,0-7.2-.9"/>
  <path class="st2" d="M816.5,62.8l.5.9c.2.4.6.6,1,.6h0c-.2.5-.4,1.1-.4,1.9v.5c0,.4,0,1,0,1.2,0,0-.2.2-.3.3-.3.3-.7.7-.5,1.4h0c.2.6.8.8,1.2.8s.3,0,.4,0c.3,0,.6.6.8.9,0,0,.2.3.3.4.5.7,1.1,1.1,1.7,1.4-.5.2-.7.8-.6,1.3l.2,1c0,.5.6.9,1.2.9h.3l1-.2c.4,0,.8-.4.9-.8.4.4,1,.7,1.7,1,0,0,.3,0,.4,0,.4,0,.9.3,1.1.5s.2.2.2.4c.2.3.5.9,1.2.9h0c.7,0,1-.5,1.2-.9,0,0,.2-.3.2-.4.2-.2.8-.4,1.1-.5.2,0,.3,0,.4,0,.8-.3,1.4-.7,1.8-1.2,0,.2,0,.4.2.5.2.2.5.4.8.4h1.1c0,0,0,0,0,0,.6,0,1.1-.5,1.2-1.1v-1.1c0-.3,0-.6-.2-.9,0,0-.2-.2-.2-.2.5-.3,1-.7,1.5-1.3,0,0,.2-.2.3-.4.2-.3.6-.8.8-.9,0,0,.3,0,.4,0,.4,0,1-.2,1.2-.8h0c.2-.6-.2-1.1-.5-1.4,0,0-.2-.2-.3-.3,0-.3,0-.8,0-1.2v-.5c0-.9-.3-1.6-.6-2.1h0c.5,0,.9-.3,1.1-.7l.4-1c0-.3,0-.6,0-.9,0-.3-.3-.5-.6-.7l-1-.4c-.2,0-.3,0-.5,0-.3,0-.5,0-.7.2,0-.6-.3-1.2-.8-1.8,0,0-.2-.2-.3-.4-.2-.3-.6-.8-.6-1.1v-.4c0-.4,0-1-.4-1.4h0c0,0,0,0,0,0-.2,0-.4-.2-.6-.2-.3,0-.6,0-.8.2,0,0-.3,0-.4.2h0c-.3,0-.7,0-1.1-.3,0,0-.3,0-.4,0-.5,0-.9-.2-1.4-.2s-.5,0-.8,0c0-.2,0-.4,0-.6,0-.3-.2-.6-.4-.8l-.8-.7c-.2-.2-.5-.3-.8-.3s-.7,0-.9.4l-.4,1.1c-.3.3-.4.8-.2,1.2h-.6c-.4,0-.9,0-1.4.2,0,0-.3,0-.4,0-.3,0-.8.3-1.1.3h0c0,0-.3,0-.4-.2-.2,0-.5-.2-.8-.2s-.5,0-.6.2h0c-.5.4-.5,1-.4,1.4v.4c0,.3-.4.8-.6,1.1,0,0-.2.3-.3.4-.5.7-.7,1.4-.8,2.1-.2-.2-.5-.3-.8-.3s-.4,0-.6.2l-.9.5c-.3.2-.5.4-.6.7,0,0,0,.5,0,.7"/>
  <path class="st2" d="M828.7,60.5c1.2,0,2.2.8,2.4,2h.3c1.1,0,2,.7,2.3,1.7.4,1.1,0,2.3-1.1,2.9.2.4.3.9.2,1.4,0,.6-.5,1.2-1,1.6-.4.3-.9.5-1.4.5s-1.2-.2-1.7-.6c-.5.4-1.1.7-1.7.7s-1-.2-1.4-.5c-1-.7-1.3-2-.8-3-.4-.2-.8-.6-1-1-.3-.6-.3-1.2,0-1.9.3-1,1.3-1.7,2.3-1.7h.3c0-.5.3-.9.7-1.3.4-.5,1-.8,1.7-.8"/>
  <path class="st1" d="M832.8,71.9c1,1.9.4,3-1.4,3.7-.5.2-1.5.4-1.9.9-.3.4-.5.9-.7.9s-.4-.5-.7-.9c-.5-.5-1.4-.7-1.9-.9-1.7-.6-2.3-1.7-1.3-3.7.2-.4.5-1.1,1-1.7.4.2.8.3,1.3.3s1.2-.2,1.7-.7c.5.4,1,.6,1.7.6s.9,0,1.3-.4c.3.8.7,1.5.9,1.9M835.9,73.8l-1.3-.4c0,0-.3,0-.3.2v1.3c0,0,.2.3.3.3h1.1c0,0,.3,0,.3,0v-1.1c.2,0,0-.2-.1-.2M824.8,67.1c-.4-.2-.8-.6-1-1-.3-.5-.3-1.2-.2-1.7-.8-.3-1.5-.4-2-.5-2.1-.4-3,.6-3.1,2.4,0,.5,0,1.5-.3,2.1-.3.5-.7.8-.7,1h0c0,.2.6.2,1.1.4.6.3,1.1,1.1,1.4,1.5,1.1,1.4,2.4,1.7,3.9.2.3-.3.9-.9,1.3-1.5-.6-.8-.8-1.9-.4-2.9M839,66.2c0-1.8-.9-2.8-3.1-2.4-.5,0-1.3.2-2.1.5.3,1.1-.2,2.2-1.2,2.7.2.4.3.9.2,1.4s-.3,1-.7,1.4c.5.7,1,1.2,1.3,1.5,1.5,1.5,2.8,1.3,3.9-.2.3-.4.8-1.3,1.4-1.5.5-.2,1-.2,1.1-.4,0-.2-.4-.5-.7-1-.2-.5,0-1.4,0-2M823.2,73.7c0,0-.2-.2-.3-.2l-1.2.5c0,0-.2.2-.2.3l.2,1c0,0,.2.2.3.2l1-.2c0,0,.2-.2.2-.3v-1.3ZM838.1,62.8l1.3.3c0,0,.3,0,.4,0l.4-1c0,0,0-.3,0-.4l-1-.4c0,0-.3,0-.4,0l-.7,1.1c0,.2,0,.4,0,.4M817.3,62.4l.5.9c0,0,.2.2.4,0l1.2-.5c0,0,.2-.2,0-.4l-.9-1c0,0-.2-.2-.4,0l-.9.5c0,.2,0,.4,0,.5M821.9,63.1c.4.2,1.1.6,1.9.8.4-.8,1.3-1.4,2.2-1.4h.3c0-.5.3-.9.7-1.3.4-.4,1-.7,1.5-.7,0-.9,0-1.7-.2-2.1-.3-2.1-1.5-2.7-3.2-2.2-.5,0-1.4.5-2.1.4-.5,0-.9-.5-1.1-.3-.2,0,0,.7,0,1.2,0,.7-.7,1.4-1,1.9-1.1,1.4-1,2.7,1,3.7M828.5,56c0,0,.3,0,.4,0l.7-1.1c0,0,0-.3,0-.4l-.8-.7c0,0-.3,0-.4,0l-.7.8c0,0,0,.3,0,.4l.8,1ZM829,60.5c1,0,1.9.9,2.1,1.9h.3c1,0,1.8.6,2.2,1.4.8-.2,1.5-.6,2-.8,1.9-1,2.1-2.2,1.1-3.8-.3-.5-1-1.2-1-1.9,0-.5.2-1,0-1.2h0c-.2,0-.6.2-1.1.3-.7,0-1.6-.3-2.1-.4-1.8-.5-2.9,0-3.2,2.2-.2.6-.4,1.5-.3,2.3"/>
  <path class="st1" d="M825.5,66.4c0,0,.3,0,.4,0h0c0,0,.1,0,.2,0,0,0,0,.3,0,.4s-.2.2-.3.3c-.5.7-.3,1.6.3,2.1.7.5,1.6.3,2.1-.3,0,0,0-.2.2-.4,0,0,0,0,.2-.2,0,0,.3,0,.3,0s0,.2.2.3c.5.7,1.5.8,2.1.3.7-.5.8-1.5.3-2.1,0,0-.2-.2-.3-.3h0c0,0,0,0,0-.2s0-.3.2-.3h0c0,0,.2,0,.4,0,.8-.3,1.2-1.1,1-1.9-.3-.8-1.1-1.2-1.9-1,0,0-.3,0-.4.2h0c0,0,0,0-.2,0,0,0-.2-.2-.2-.3v-.4c0-.8-.7-1.5-1.5-1.5s-1.5.7-1.5,1.5,0,.3,0,.4v.2c0,0-.2,0-.4,0h0c0,0-.2,0-.3-.2-.8-.3-1.7.2-1.9,1-.2,1,.2,1.9,1,2.1"/>
  <path class="st2" d="M827.4,65.8c0-.7.5-1.2,1.2-1.2s1.2.5,1.2,1.2-.5,1.2-1.2,1.2-1.2-.5-1.2-1.2"/>
  <path class="st2" d="M890.1,62.8l-.5.9c-.2.4-.6.6-1,.6h0c.2.5.4,1.1.4,1.9v.5c0,.4,0,1,0,1.2,0,0,.2.2.3.3.3.3.7.7.5,1.4h0c-.2.6-.8.8-1.2.8s-.3,0-.4,0c-.3,0-.6.6-.8.9,0,0-.2.3-.3.4-.5.7-1.1,1.1-1.7,1.4.5.2.7.8.6,1.3l-.2,1c0,.5-.6.9-1.2.9h-.3l-1-.2c-.4,0-.8-.4-.9-.8-.4.4-1,.7-1.6,1,0,0-.3,0-.4,0-.4,0-.9.3-1.1.5s-.2.2-.2.4c-.2.3-.5.9-1.2.9h0c-.7,0-1-.5-1.2-.9,0,0-.2-.3-.2-.4-.2-.2-.8-.4-1.1-.5-.2,0-.3,0-.4,0-.8-.3-1.4-.7-1.8-1.2,0,.2,0,.4-.2.5-.2.2-.5.4-.8.4h-1.1c0,0,0,0,0,0-.6,0-1.1-.5-1.2-1.1v-1.1c0-.3,0-.6.2-.9,0,0,.2-.2.2-.2-.5-.3-1-.7-1.5-1.3,0,0-.2-.2-.3-.4-.2-.3-.6-.8-.8-.9,0,0-.3,0-.4,0-.4,0-1-.2-1.2-.8h0c-.2-.6.2-1.1.5-1.4,0,0,.2-.2.3-.3,0-.3,0-.8,0-1.2v-.5c0-.9.3-1.6.6-2.1h-.2c-.5,0-.9-.3-1.1-.7l-.4-1c0-.3,0-.6,0-.9,0-.3.3-.5.6-.7l1-.4c.2,0,.3,0,.5,0,.3,0,.5,0,.7.2,0-.6.3-1.2.7-1.8,0,0,.2-.2.3-.4.2-.3.6-.8.6-1.1v-.4c0-.4,0-1,.4-1.4h0c0,0,0,0,0,0,.2,0,.4-.2.6-.2.3,0,.6,0,.8.2,0,0,.3,0,.4.2h0c.3,0,.7,0,1.1-.3.2,0,.3,0,.4,0,.5,0,.9-.2,1.4-.2s.5,0,.8,0c0-.2,0-.4,0-.6,0-.3.2-.6.4-.8l.8-.7c.2-.2.5-.3.8-.3s.7,0,.9.4l.7.8c.3.3.4.8.2,1.2h.6c.4,0,.9,0,1.4.2,0,0,.3,0,.4,0,.3,0,.8.3,1.1.3h0c0,0,.3,0,.4-.2.2,0,.5-.2.8-.2s.5,0,.6.2h0c.5.4.5,1,.4,1.4v.4c0,.3.4.8.6,1.1,0,0,.2.3.3.4.5.7.7,1.4.8,2.1.2-.2.5-.3.8-.3s.4,0,.6.2l.9.5c.3.2.5.4.6.7,0,.4-.2.8-.3,1"/>
  <path class="st2" d="M877.9,60.5c-1.2,0-2.2.8-2.4,2h-.3c-1.1,0-2,.7-2.3,1.7-.4,1.1,0,2.3,1.1,2.9-.2.4-.3.9-.2,1.4,0,.6.5,1.2,1,1.6.4.3.9.5,1.4.5s1.2-.2,1.7-.6c.5.4,1.1.7,1.7.7s1-.2,1.4-.5c1-.7,1.3-2,.8-3,.4-.2.8-.6,1-1,.3-.6.4-1.2,0-1.9-.3-1-1.3-1.7-2.3-1.7h-.3c0-.5-.3-.9-.7-1.3-.5-.5-1.1-.8-1.7-.8"/>
  <path class="st1" d="M873.8,71.9c.2-.4.6-1.1,1.1-1.7.4.2.8.4,1.3.4s1.2-.2,1.7-.6c.5.4,1.1.7,1.7.7s.9,0,1.3-.3c.5.6.8,1.3,1,1.7,1,1.9.4,3-1.3,3.7-.5.2-1.5.4-1.9.9-.3.4-.5.9-.7.9s-.4-.5-.7-.9c-.5-.5-1.4-.7-1.9-.9-2-.8-2.6-2-1.6-3.9M870.6,73.8c0,0-.3,0-.2.3v1.1c0,0,.2.3.4.2h1.1c0,0,.3-.2.2-.4v-1.3c0,0,0-.3-.2-.2l-1.3.3M881.7,67.1c.4,1,.2,2.1-.6,2.8.5.7,1,1.2,1.3,1.5,1.5,1.5,2.8,1.3,3.9-.2.3-.4.8-1.3,1.4-1.5.5-.2,1-.2,1.1-.4h0c0-.2-.4-.5-.7-1-.4-.6-.2-1.6-.3-2.1,0-1.8-.9-2.8-3.1-2.4-.5,0-1.2.2-2,.5.2.6,0,1.2-.2,1.7,0,.5-.3.9-.8,1.1M867.6,66.2c0,.5,0,1.5-.3,2.1-.3.5-.7.8-.7,1,0,.2.6.2,1.1.4.6.3,1.1,1.1,1.4,1.5,1.1,1.4,2.4,1.7,3.9.2.3-.3.9-.9,1.3-1.5-.4-.4-.6-.9-.7-1.4,0-.5,0-1,.2-1.4-.9-.5-1.4-1.6-1.2-2.7-.8-.3-1.6-.4-2.1-.5-2-.4-2.8.5-2.9,2.3M883.3,75.1c0,0,0,.3.2.3l1,.2c0,0,.3,0,.3-.2l.2-1c0,0,0-.3-.2-.3l-1.2-.5c0,0-.3,0-.3.2v1.3ZM868.5,62.8c0,0,.2-.2,0-.4l-.7-1.1c0,0-.2-.2-.4,0l-1,.4c0,0-.2.2,0,.4l.4,1c0,0,.2.2.4,0l1.3-.3M889.3,62.4c0,0,0-.3,0-.4l-.9-.5c0,0-.3,0-.4,0l-.9,1c0,0,0,.3,0,.4l1.2.5c0,0,.3,0,.4,0l.6-1M884.7,63.1c1.9-1,2.1-2.2,1.1-3.8-.3-.5-1-1.2-1-1.9,0-.5,0-1,0-1.2-.2,0-.6.2-1.1.3-.7,0-1.6-.3-2.1-.4-1.8-.5-2.9,0-3.2,2.2,0,.5-.2,1.3-.2,2.1.6,0,1.1.3,1.5.7s.6.8.7,1.3h.3c.9,0,1.8.5,2.2,1.4.6-.2,1.3-.5,1.8-.7M878.8,55c0,0,0-.3,0-.4l-.7-.8c0,0-.3,0-.4,0l-.8.7c0,0,0,.3,0,.4l.7,1.1c0,0,.3,0,.4,0l.8-1ZM877.5,60.5c0-.9,0-1.7-.2-2.2-.3-2.1-1.5-2.7-3.2-2.2-.5,0-1.4.6-2.1.4-.5,0-.9-.5-1.1-.3h0c-.2,0,0,.7,0,1.2,0,.7-.7,1.4-1,1.9-1,1.5-.9,2.8,1.1,3.8.4.2,1.2.6,2,.8.4-.8,1.3-1.4,2.2-1.4h.3c.2-1,1-1.8,2-2"/>
  <path class="st1" d="M881,66.4c0,0-.3,0-.4,0h0c0,0-.1,0-.2,0,0,0,0,.3,0,.4s.2.2.3.3c.5.7.3,1.6-.3,2.1-.7.5-1.6.3-2.1-.3,0,0,0-.2-.2-.4h0c0,0,0,0-.2-.2,0,0-.3,0-.3,0h0c0,0,0,.2-.2.3-.5.7-1.5.8-2.1.3-.7-.5-.8-1.5-.3-2.1,0,0,.2-.2.3-.3h0c0,0,0,0,0-.2s0-.3-.2-.3h0c0,0-.2,0-.4,0-.8-.3-1.2-1.1-1-1.9.3-.8,1.1-1.2,1.9-1,0,0,.3,0,.4.2h0c0,0,0,0,.2,0,0,0,.2-.2.2-.3v-.4c0-.8.7-1.5,1.5-1.5s1.5.7,1.5,1.5,0,.3,0,.4v.2c0,0,.2,0,.4,0h0c0,0,.2,0,.3-.2.8-.3,1.7.2,1.9,1,.3,1-.2,1.9-1,2.1"/>
  <path class="st2" d="M879.1,65.8c0-.7-.5-1.2-1.2-1.2s-1.2.5-1.2,1.2.5,1.2,1.2,1.2,1.2-.5,1.2-1.2"/>
  <path class="st0" d="M581.9,39s-5.8.2-9.8,1.9c-3,1.3-4.6,3.6-4.5,6.3,0,1.6,1.9,4.4,6.1,4.2,4.2-.3,8.2-3.9,8.2-3.9v-8.5ZM582,36.9v-5.8c0-4.4-4.7-4.5-6.8-4.5s-4.7.1-6.2,2c-.8,1-.5,2.8-.5,3.7,0,1.8-1.1,3.1-2.8,3.1s-3.1-1.4-3.1-3.1c0-3.5,3.2-5.5,3.2-5.5,2.4-1.7,6.6-2.5,10.1-2.5s6.7.7,9.4,2.8c1.4,1,2.5,2.8,2.5,6.5v17.1l5.5,1.5v1.8h-7.9l-3.5-3.8s-5,4.2-11.2,4.2-9.1-3.4-9.1-6.5c0,0-1-6.4,8.2-9.2,1.7-.5,3.3-.8,4.7-1.1,5-.8,7.5-.7,7.5-.7M710.2,79.6c-4.2-.8-7.5-1.9-7.5-4.7s4-3.7,5.7-3.6c7.7.3,9.8,6.7,9.8,6.7h1.7l-1.7-8.5h-1.5l-.5,1.8c-1.3-.9-4.2-2.4-7.5-2.4-6.8,0-10.7,3.9-10.7,8.3s5.6,6.1,9.8,7.3c4.1,1.2,9.5,1.4,9.5,5.4s-6.7,4.8-6.7,4.8c-9.1,0-11.4-8.1-11.4-8.1h-1.9l1.8,9.9h1.8l.7-2.2s4.5,2.7,9.3,2.7c6.8,0,11.3-4.4,11.3-9.1,0-6.3-7.6-7.4-12-8.3M683.9,39s-5.8.2-9.8,1.9c-3,1.3-4.6,3.6-4.5,6.3,0,1.6,1.9,4.4,6.1,4.2,4.2-.3,8.2-3.9,8.2-3.9v-8.5ZM684,36.9v-5.8c0-4.4-4.7-4.5-6.8-4.5s-4.7.1-6.2,2c-.8,1-.5,2.8-.5,3.7,0,1.8-1.1,3.1-2.8,3.1s-3.1-1.4-3.1-3.1c0-3.5,3.2-5.5,3.2-5.5,2.4-1.7,6.6-2.5,10.1-2.5s6.7.7,9.4,2.8c1.4,1,2.5,2.8,2.5,6.5v17.1l5.8,1.6.4,1.7h-8.6l-3.5-3.8s-5,4.2-11.2,4.2-9.1-3.4-9.1-6.5c0,0-1-6.4,8.2-9.2,1.7-.5,3.3-.8,4.7-1.1,5-.8,7.5-.7,7.5-.7M727.9,63.5c0,1.9,1.5,3.4,3.4,3.4s3.4-1.5,3.4-3.4-1.5-3.4-3.4-3.4c-1.9,0-3.4,1.6-3.4,3.4M733.8,69.7l-10,1v2.3h4.7v20.6l-4.7,1.5v1.7h14.7v-1.8l-4.6-1.5v-23.8h-.1ZM608.1,60.2c-1.9,0-3.4,1.5-3.4,3.4s1.5,3.4,3.4,3.4,3.4-1.5,3.4-3.4-1.5-3.4-3.4-3.4M610.4,69.7l-10,1v2.3h4.7v20.6l-4.8,1.5v1.7h14.7v-1.8l-4.6-1.5v-23.8h0ZM694,69.4h0c0,0,0,0,0,0h-.2c-5.6-1.2-10,3.4-11,4.5v-4.1h-2.2l-8.1,2.2v1.6h4.8v20.3l-4.7,1.3v1.6h15.1v-1.6l-5-1.3v-17.6c.3-.3,2.9-3,5.1-3s2.6,1.6,5,1.8h.3c1.6,0,2.9-1.3,2.9-3,.2-1.3-.7-2.4-2-2.7M796,24.2h0q0,0,0,0h-.2c-6.1-1.4-10.9,3.7-11.9,4.9v-4.4h-2.4l-8.8,2.4v1.8h5.3v22.1l-5.1,1.4v1.6h16.5v-1.8l-5.4-1.4v-19c.4-.4,3.1-3.3,5.5-3.3s2.8,1.7,5.5,2h.4c1.8,0,3.2-1.4,3.2-3.2-.2-1.5-1.3-2.7-2.6-3.1M651,78.3h13.6c-.2-4.2-2.9-7-6.7-7s-6.9,1.8-6.9,7M650.8,80.7s-2.1,14.1,9.1,14.1c0,0,5.8.2,8.6-5.1l1.7.8c-1.4,4-6.1,6.7-11.1,6.7-7.7,0-14.1-6.3-14.1-14s1.9-9,5.4-11.6c2.3-1.7,5-2.4,8-2.4,6.7,0,11.7,4.6,12.1,11.4h-19.7ZM750.5,34h14.7c-.2-4.6-3.1-7.6-7.3-7.6-3.2-.1-7.4,1.9-7.4,7.6M744,39.3c0-5.1,2-9.8,5.8-12.5,2.5-1.8,5.4-2.6,8.7-2.6,7.3,0,12.7,4.9,13.1,12.4h-21.3s-2.2,15.3,9.8,15.3c0,0,6.3.3,9.3-5.5l1.9.9c-1.5,4.3-6.6,7.3-12,7.3-8.3,0-15.3-6.9-15.3-15.3M728.3,44.5v3.7c0,3.9,3.8,6.2,8.2,6.2s7.4-2,8.9-3.5c-.4-.5-.8-1.1-1.2-1.7-1.7,1.4-3.2,2.7-5.3,2.7s-4.2-2-4.6-4c0-.9,0-2.5,0-3.9v-17.5h8.7v-2h-8.7v-11.1h-2.8s0,5-2.3,8.5c-1.9,2.7-5.6,2.8-5.6,2.8v1.9h4.8v17.9h0ZM751.6,95c-2.3,0-3.9-1.8-4.2-3.7,0-.8,0-2.3,0-3.6v-16.3h8v-1.8h-8v-10.3h-2.5s0,4.6-2.2,7.9c-1.7,2.5-5.2,2.6-5.2,2.6v1.7h4.4v20c0,3.6,3.5,5.8,7.5,5.8s7.2-2.2,8.6-3.7l-1.4-1.2c-1.5,1.3-2.9,2.6-4.9,2.6M710.7,35.5c-4.5-.9-8.1-2.1-8.1-5.1s4.4-4,6.2-3.9c8.3.3,10.6,7.3,10.6,7.3h1.9l-1.9-9.2h-1.7l-.6,2c-1.4-1-4.5-2.7-8.2-2.7-7.3,0-11.6,4.3-11.6,9s6,6.6,10.6,7.9c4.4,1.3,10.3,1.5,10.3,5.9s-7.2,5.2-7.2,5.2c-9.8,0-12.4-8.8-12.4-8.8h-2.1l1.9,10.8h2l.7-2.4s4.9,2.9,10.1,2.9,12.3-4.8,12.3-9.9-8.1-8.1-12.8-9M593.7,93.5v-17.1c0-1.9-.7-3.7-2.1-4.9-1.6-1.3-3.5-2-5.5-2.2-3.6-.4-7.1.8-10,2.8-.9.6-1.7,1.1-2.5,1.7v-4h-2l-8.2,2.2v1.6h4.8v20l-4.6,1.5v1.7h14.7v-1.7l-4.7-1.5v-17.1h0c1.3-1,2.7-1.9,4.1-2.7,1.8-1,4.2-2.1,6.3-1.8,1.1.2,2.3.9,2.9,1.8,1,1.3,1.3,3.1,1.3,4.7v15.1l-4.6,1.4v1.7h14.8v-1.7l-4.7-1.5ZM588.2,93.5h0c0,0,0,0,0,0ZM622,50.4h0c0,0,0,0,0,0ZM600.3,50.5l-5,1.6v1.9h16v-1.8l-5.1-1.6v-18.6h0c1.4-1.1,2.9-2.1,4.5-2.9,2-1,4.5-2.3,6.8-1.9,1.2.2,2.5,1,3.2,1.9,1.1,1.4,1.4,3.4,1.4,5.1v16.3c0,0,0,0,0,0l-5,1.6v1.8h16.1v-1.8l-5-1.6v-18.7c0-2.1-.7-4-2.3-5.4-1.7-1.4-3.8-2.2-6-2.4-3.9-.4-7.7.9-10.9,3-.9.6-1.8,1.2-2.7,1.9v-4.4h-2.1l-9.2,2.4v1.8h5.3v21.7ZM560.3,41l-1.5-.6h-.3c-4,7-12.1,11.2-17.4,11.2,0,0-5.6.3-5.6-4.7h0V15.6l5.3-1.5v-1.4c0,0-16.7,0-16.7,0v1.6l5,1.3v35l-5.1,1.4v2h31.3s5-13,5-13ZM777.4,71.3l4.8,1.3-7.1,19-7.7-19.2,3.9-1.1v-1.6h-13.3v1.7l3.7,1,10.6,26.2c-.7,1.3-1.4,2.6-2,3.9-.8,1.6-2.5,4.1-4.5,4.2-1.8.2-2.3-2-3.7-2.8-2.6-1.4-4.9,2-3.2,4.2.8,1.1,2.3,1.7,3.6,1.8,1.4,0,3-.2,4.3-.8.7-.3,1.5-.8,2.1-1.3,1.2-1.1,2.1-2.5,2.9-3.9,1.3-2.4,2.5-4.8,3.5-7.3.9-2.1,1.8-4.3,2.7-6.4,1.1-2.6,2.2-5.2,3.3-7.8,1-2.2,1.9-4.5,2.8-6.7.5-1.1.9-2.2,1.4-3.2h0c0,0,3.9-1.1,3.9-1.1v-1.7h-12v1.6h0ZM559.9,61.7h0s0,0,0,0l5-1.4v-1.9h-13.5v1.7l5.4,1.4v24.8s.4,8.3-10.6,8.3-11-7.2-11-8.3v-24.7l5.5-1.5v-1.7h-16.4v1.7l5.3,1.4v24.5s-.9,11.6,15.6,11.6,14.7-10.9,14.7-10.9c0,0,0-25,0-25ZM645.4,69.7h-11.7v1.5l4.4,1.2-7,19.4-7.2-19.5,4.1-1.1v-1.7h-13.5v1.6l3.5,1,9.9,24.5h3.2l10.4-24.4,3.9-1v-1.5h0ZM633.3,39.3c0-4.8,1.4-9.3,4.9-12.1,2.6-2.1,6.3-3.3,9.9-3.3s6.6,1.1,9,2.8c0,0,3.2,2,3.2,5.5s-1.4,3.1-3.1,3.1-2.9-1.3-2.8-3.1c0-.8.2-2.3-.4-3.4-1.4-2.9-5.4-2.7-5.4-2.7-5.9,0-8.4,5.9-8.4,13.1s5.3,13.1,9.8,13.1c0,0,5.1,0,9.5-5.6l1.8,1.2c-2.7,4.2-7.4,6.9-12.8,6.9-8.3,0-15.2-7-15.2-15.5"/>
  <path class="st2" d="M890,89.9c-2.2.6-4.9,1.1-8.8,1.1s-5.9-.3-8-.9c-1.6-.4-2.9-.9-4.2-1.4-2-.8-3.9-1.7-6.3-2.3-2.4-.7-5.4-1.2-9.4-1.1-3.6,0-6.3.4-8.6.9-1.7.4-3.2,1-4.5,1.5-2,.8-3.8,1.6-6.1,2.3-2.2.6-4.9,1.1-8.8,1.1s-5.9-.3-8-.9c-1.5-.4-2.7-.8-4-1.3.5,1,.9,2.1,1.5,3.1.4,0,.7.2,1.1.3,2.4.7,5.4,1.2,9.4,1.1,3.6,0,6.3-.4,8.6-.9,1.7-.4,3.2-.9,4.5-1.5,2-.8,3.8-1.6,6.1-2.3,2.2-.6,4.9-1.1,8.8-1.1s5.9.3,8,.9c1.6.4,2.9.9,4.2,1.4,2,.8,3.9,1.7,6.3,2.3,2.4.7,5.4,1.2,9.4,1.1,3.6,0,6.3-.4,8.6-.9.7-.2,1.3-.3,1.9-.5.5-1,1-2.1,1.5-3.1-1,.4-2,.8-3.2,1.1"/>
  <path class="st2" d="M881.2,86.1c-3.4,0-5.9-.3-8-.9-1.6-.4-2.9-.9-4.2-1.4-2-.8-3.9-1.7-6.3-2.3-2.4-.7-5.4-1.2-9.4-1.1-3.6,0-6.3.4-8.6.9-1.7.4-3.2.9-4.5,1.5-2,.8-3.8,1.6-6.1,2.3-2.2.6-4.9,1.1-8.8,1.1s-5.9-.3-8-.9c-1.6-.4-2.9-.9-4.2-1.4-.7-.3-1.4-.6-2.1-.8.4,1,.8,2.1,1.2,3.1,1.1.5,2.3.9,3.7,1.3,2.4.7,5.4,1.2,9.4,1.2s6.3-.4,8.6-.9c1.7-.4,3.2-.9,4.5-1.5,2-.8,3.8-1.6,6.1-2.3,2.2-.6,4.9-1.1,8.8-1.1s5.9.3,8,.9c1.6.4,2.9.9,4.2,1.4,2,.8,3.9,1.7,6.3,2.3,2.4.7,5.4,1.2,9.4,1.2s6.3-.4,8.6-.9c1.7-.4,3.2-.9,4.5-1.5.4-1,.8-2.1,1.2-3.1-1.8.7-3.5,1.5-5.5,2-2.2.4-4.9.9-8.8.9"/>
  <path class="st2" d="M810.3,80.6c1.7.7,3.5,1.5,5.7,2.1,2.4.7,5.4,1.2,9.4,1.2s6.3-.4,8.6-.9c1.7-.4,3.2-.9,4.5-1.5,2-.8,3.8-1.6,6.1-2.3,2.2-.6,4.9-1.1,8.8-1.1s5.9.3,8,.9c1.6.4,2.9.9,4.2,1.4,2,.8,3.9,1.7,6.3,2.3,2.4.7,5.4,1.2,9.4,1.2s6.3-.4,8.6-.9c1.7-.4,3.2-.9,4.5-1.5.7-.3,1.3-.5,2-.8.3-1,.6-2,.9-3-.4,0-.7.3-1.1.4-2,.8-3.8,1.6-6.1,2.3-2.2.6-4.9,1.1-8.8,1.1s-5.9-.3-8-.9c-1.6-.4-2.9-.9-4.2-1.4-2-.8-3.9-1.7-6.3-2.3-2.4-.7-5.4-1.1-9.4-1.1s-6.3.4-8.6.9c-1.7.4-3.2.9-4.5,1.5-2,.8-3.8,1.6-6.1,2.3-2.2.6-4.9,1.1-8.8,1.1s-5.9-.3-8-.9c-1.6-.4-2.9-.9-4.2-1.4-1.2-.5-2.4-1-3.8-1.5.3.9.5,1.8.9,2.8"/>
  <rect class="st2" x="806.6" y="49.4" width="93.4" height="1.2"/>
  <rect class="st4" x="495.7" width="1.3" height="109.4"/>
  <path class="st4" d="M51.9,77.3c-2.3,1.4-4.1,2.9-5.3,4.4s-1.8,3.4-1.8,5.7.2,2,.6,3c.4.9.9,1.7,1.6,2.4.7.7,1.6,1.2,2.6,1.6s2.2.6,3.5.6,2.2,0,3.1-.4c1-.3,1.8-.7,2.6-1.2s1.5-1.1,2.2-1.7c.7-.7,1.3-1.3,1.9-2.1,0,0-11-12.3-11-12.3ZM64.8,91.4c-.7.8-1.5,1.6-2.3,2.3-.8.7-1.7,1.4-2.6,1.9-1,.6-2,1-3.1,1.4-1.1.3-2.4.5-3.7.5s-3.3-.3-4.7-.8-2.5-1.2-3.5-2.1-1.7-2-2.2-3.2-.8-2.5-.8-3.9c0-2.7.8-5,2.3-6.9s3.5-3.6,6-5.2l-1.6-2c-.8-1-1.5-2.1-2.1-3.4-.5-1.2-.8-2.6-.8-4s.2-1.9.6-2.9c.4-1,1-1.8,1.7-2.6s1.6-1.4,2.7-1.8c1.1-.5,2.3-.7,3.8-.7,2.3,0,4.1.5,5.5,1.4,1.4,1,2.5,2.5,3.5,4.6l-2,1.2c-1-2-2-3.3-3.1-3.9-1.1-.6-2.3-1-3.8-1s-1.9.2-2.7.5-1.4.7-1.9,1.2-.9,1.1-1.2,1.8c-.3.7-.4,1.4-.4,2,0,1.3.3,2.5,1,3.7.6,1.2,1.6,2.6,2.9,4.1l12.3,13.6,5-6.8,2,1.5-5.4,7.2,6.6,7.3h-3.4s-4.6-5-4.6-5Z"/>
  <path class="st4" d="M116.2,90.4c-.2.4-.6,1-1.3,1.7-.6.8-1.5,1.6-2.6,2.4s-2.5,1.5-4.1,2.1-3.5.9-5.7.9-5.2-.5-7.4-1.5c-2.2-1-4.2-2.4-5.8-4.1-1.6-1.8-2.8-3.9-3.7-6.3-.9-2.4-1.3-5-1.3-7.8s.4-5.3,1.3-7.7c.9-2.4,2.1-4.5,3.7-6.3s3.5-3.2,5.8-4.2c2.2-1,4.7-1.5,7.4-1.5s4.1.3,5.7.9c1.6.6,3,1.3,4.1,2.1s2,1.6,2.6,2.4,1,1.4,1.3,1.7l-2,1.4c-.2-.3-.6-.8-1.1-1.4-.5-.7-1.2-1.3-2.1-2s-2.1-1.3-3.4-1.8c-1.4-.5-3-.8-4.9-.8s-4.6.4-6.5,1.3c-1.9.9-3.5,2.1-4.8,3.6-1.3,1.5-2.3,3.4-3,5.4-.7,2.1-1,4.3-1,6.7s.4,4.6,1.1,6.7,1.7,3.9,3,5.5,2.9,2.8,4.8,3.7c1.9.9,4.1,1.3,6.5,1.3s3.3-.3,4.6-.8c1.3-.5,2.5-1.1,3.4-1.8.9-.7,1.7-1.3,2.2-2s.9-1.1,1.2-1.4l2,1.6h0Z"/>
  <path class="st4" d="M133.4,95c1.5,0,2.9-.3,4.2-.9s2.5-1.4,3.4-2.4c1-1,1.7-2.2,2.3-3.6.5-1.4.8-2.8.8-4.4s-.3-2.9-.8-4.3c-.6-1.4-1.3-2.6-2.3-3.6-1-1.1-2.1-1.9-3.4-2.5-1.3-.6-2.7-.9-4.2-.9s-3,.3-4.3.9-2.4,1.4-3.4,2.4-1.7,2.2-2.3,3.6c-.5,1.4-.8,2.8-.8,4.4s.3,3,.8,4.3c.6,1.4,1.3,2.6,2.3,3.6,1,1.1,2.1,1.9,3.4,2.5,1.4.6,2.8.9,4.3.9M133.4,97.3c-1.8,0-3.6-.4-5.2-1.1-1.6-.7-3-1.7-4.3-2.9-1.2-1.2-2.2-2.7-2.9-4.3-.7-1.7-1-3.4-1-5.3s.3-3.6,1-5.3c.7-1.7,1.7-3.1,2.9-4.3s2.6-2.2,4.3-2.9c1.6-.7,3.3-1.1,5.2-1.1s3.6.4,5.2,1.1c1.6.7,3,1.7,4.3,2.9,1.2,1.2,2.2,2.7,2.9,4.3.7,1.7,1,3.4,1,5.3s-.3,3.6-1,5.3c-.7,1.7-1.7,3.1-2.9,4.3-1.2,1.2-2.6,2.2-4.3,2.9-1.7.8-3.4,1.1-5.2,1.1"/>
  <path class="st4" d="M151.6,76.2v-4.3c0-.4,0-.7-.1-1.2h2.4c0,.4.1.8.1,1.1s0,.7.1,1.1v3.2c.3-.6.7-1.2,1.2-1.9.5-.7,1.2-1.4,2-2s1.7-1.1,2.8-1.5,2.3-.6,3.8-.6c2.5,0,4.4.5,5.7,1.6s2.2,2.6,2.8,4.5h0c.3-.6.7-1.2,1.3-1.9.6-.7,1.3-1.4,2.2-2s1.9-1.2,3-1.6,2.4-.6,3.8-.6,3.2.3,4.4.8,2.1,1.3,2.8,2.3,1.2,2.2,1.5,3.6.4,3,.4,4.7v15.2h-2.5v-14.4c0-1.9-.1-3.5-.5-4.8-.3-1.3-.8-2.3-1.4-3-.6-.8-1.3-1.3-2.2-1.6-.8-.3-1.8-.5-3-.5s-2.5.3-3.6.8-2.1,1.2-3,2.1c-.8.9-1.5,1.9-2,3s-.7,2.3-.7,3.5v14.9h-2.5v-14.4c0-1.9-.1-3.5-.5-4.8-.3-1.3-.7-2.3-1.3-3-.6-.8-1.3-1.3-2.1-1.6-.8-.3-1.8-.5-3-.5s-2.9.3-4.1,1c-1.2.7-2.1,1.5-2.9,2.6-.8,1.1-1.4,2.2-1.8,3.5-.4,1.3-.6,2.5-.6,3.8v13.4h-2.5v-20.5h0Z"/>
  <path class="st4" d="M197.7,76.2v-4.3c0-.4,0-.7-.1-1.2h2.4c0,.4.1.8.1,1.1s0,.7.1,1.1v3.2c.3-.6.7-1.2,1.2-1.9.5-.7,1.2-1.4,2-2s1.7-1.1,2.8-1.5,2.3-.6,3.8-.6c2.5,0,4.4.5,5.7,1.6s2.2,2.6,2.8,4.5h0c.3-.6.7-1.2,1.3-1.9.6-.7,1.3-1.4,2.2-2s1.9-1.2,3-1.6,2.4-.6,3.8-.6,3.2.3,4.4.8,2.1,1.3,2.8,2.3,1.2,2.2,1.5,3.6.5,3,.5,4.7v15.2h-2.5v-14.4c0-1.9-.1-3.5-.5-4.8-.3-1.3-.8-2.3-1.4-3-.6-.8-1.3-1.3-2.2-1.6-.8-.3-1.8-.5-3-.5s-2.5.3-3.6.8-2.1,1.2-3,2.1c-.8.9-1.5,1.9-2,3s-.7,2.3-.7,3.5v14.9h-2.5v-14.4c0-1.9-.2-3.5-.5-4.8s-.7-2.3-1.3-3c-.6-.8-1.3-1.3-2.1-1.6-.8-.3-1.8-.5-3-.5s-2.9.3-4.1,1c-1.2.7-2.1,1.5-2.9,2.6-.8,1.1-1.4,2.2-1.8,3.5-.4,1.3-.6,2.5-.6,3.8v13.4h-2.5v-20.5h-.1,0Z"/>
  <path class="st4" d="M243.4,70.7h2.5v14.4c0,1.9.2,3.5.5,4.8s.8,2.3,1.4,3c.6.8,1.4,1.3,2.4,1.6.9.3,2,.5,3.3.5s3-.3,4.2-1c1.2-.7,2.2-1.5,3-2.6s1.3-2.2,1.7-3.5c.4-1.3.6-2.5.6-3.8v-13.4h2.5v24.8c0,.4,0,.7.1,1.2h-2.4c0-.4-.1-.8-.1-1.1s0-.7-.1-1.1v-3.2c-.3.6-.7,1.2-1.2,1.9s-1.2,1.4-2,2-1.7,1.1-2.8,1.6c-1.1.4-2.4.6-3.9.6s-3.4-.3-4.6-.8c-1.2-.5-2.2-1.3-3-2.3s-1.3-2.2-1.6-3.6-.5-3-.5-4.7v-15.3Z"/>
  <path class="st4" d="M271.8,76.2v-4.3c0-.4,0-.7-.1-1.2h2.4c0,.4.1.8.1,1.1s0,.7.1,1.1v3.2c.3-.6.7-1.2,1.3-1.9.5-.7,1.2-1.4,2-2s1.8-1.1,2.9-1.5,2.4-.6,3.9-.6,3.4.3,4.7.8c1.3.5,2.3,1.3,3.1,2.3.8,1,1.4,2.2,1.7,3.6.3,1.4.5,3,.5,4.7v15.2h-2.5v-14.4c0-1.9-.2-3.5-.5-4.8s-.8-2.3-1.5-3c-.7-.8-1.5-1.3-2.4-1.6-1-.3-2.1-.5-3.3-.5-1.7,0-3.1.3-4.3,1-1.2.7-2.2,1.5-3,2.6s-1.4,2.2-1.8,3.5-.6,2.5-.6,3.8v13.4h-2.5v-20.5h-.2Z"/>
  <path class="st4" d="M300.2,70.7h2.5v25.9h-2.5v-25.9ZM299.7,61.6h3.6v3.7h-3.6s0-3.7,0-3.7Z"/>
  <path class="st4" d="M330.9,92.8c-1.1,1.3-2.5,2.4-4.3,3.2-1.7.8-3.7,1.3-6,1.3s-3.6-.3-5.2-1-3-1.7-4.1-2.9c-1.2-1.2-2.1-2.7-2.7-4.3-.6-1.7-1-3.5-1-5.4s.3-3.7,1-5.4c.7-1.7,1.6-3.1,2.7-4.3,1.2-1.2,2.5-2.2,4.1-2.9,1.6-.7,3.3-1,5.2-1s4.2.4,5.8,1.2c1.6.8,3,1.9,4.1,3.4l-1.9,1.5c-.9-1.1-1.9-2-3.2-2.7-1.3-.7-2.9-1-4.8-1s-2.9.3-4.1.9c-1.3.6-2.3,1.4-3.3,2.4-.9,1-1.6,2.2-2.1,3.6s-.8,2.8-.8,4.4.3,3,.8,4.4,1.2,2.6,2.2,3.6c.9,1,2,1.8,3.3,2.4s2.6.9,4.1.9,3.5-.3,5-1c1.4-.7,2.6-1.6,3.5-2.7l1.7,1.4h0Z"/>
  <path class="st4" d="M352.7,83.4c-.8-.2-1.8-.3-3-.5-1.2,0-2.7-.2-4.5-.2s-3.4.2-4.6.7c-1.1.5-2,1.1-2.6,1.7-.6.7-1,1.4-1.1,2.3-.2.8-.3,1.5-.3,2.2,0,1.9.6,3.3,1.9,4.1,1.3.9,2.9,1.3,4.8,1.3s2.5-.2,3.6-.7,2.1-1.1,3-1.8c.8-.8,1.5-1.6,2-2.6s.7-1.9.7-2.9v-3.6h.1ZM352.9,96.7c0-.3-.1-.7-.1-1.1s-.1-.8-.1-1.4v-1.9c-.7,1-1.4,1.8-2.2,2.5-.8.7-1.7,1.2-2.5,1.5-.9.4-1.7.6-2.6.8-.8,0-1.6.2-2.3.2-1.1,0-2.2,0-3.3-.3-1.1-.2-2.1-.6-2.9-1.2-.9-.6-1.6-1.4-2.1-2.4s-.8-2.3-.8-3.8.2-2.4.6-3.5,1.1-2.1,2-2.9,2.1-1.4,3.5-1.9,3.2-.7,5.2-.7,3,0,4.2.2,2.3.2,3.2.4v-1.5c0-1.4-.2-2.6-.5-3.6-.3-.9-.8-1.7-1.5-2.3-.7-.6-1.5-1-2.5-1.2s-2.1-.3-3.4-.3c-2.1,0-3.8.3-5.1.9-1.3.6-2.2,1.2-2.9,1.8l-1.4-1.7c.7-.7,1.9-1.4,3.5-2.1,1.6-.8,3.5-1.1,5.8-1.1,3.3,0,5.9.7,7.7,2.1,1.8,1.4,2.7,3.8,2.7,7.1v14c0,.7,0,1.2.1,1.7,0,.6.1,1.1.1,1.6h-2.4q0,0,0,.1Z"/>
  <path class="st4" d="M363.5,73.1h-5.2v-2.4h5.2v-8.6h2.5v8.6h8.6v2.4h-8.6v15c0,1.5.1,2.8.3,3.7.2.9.6,1.6,1,2.1s.9.8,1.5.9c.6.2,1.2.2,1.9.2s1.7-.2,2.4-.5c.7-.3,1.4-.9,2-1.7l1.6,1.5c-.8,1-1.6,1.7-2.6,2.3-1,.5-2.2.8-3.7.8s-2,0-2.8-.4c-.9-.2-1.6-.7-2.2-1.4-.6-.7-1.1-1.5-1.4-2.6s-.5-2.5-.5-4.3v-15.6h0Z"/>
  <path class="st4" d="M379.6,70.7h2.5v25.9h-2.5v-25.9ZM379.1,61.6h3.6v3.7h-3.6s0-3.7,0-3.7Z"/>
  <path class="st4" d="M400.4,95c1.5,0,2.9-.3,4.2-.9,1.3-.6,2.5-1.4,3.4-2.4,1-1,1.7-2.2,2.3-3.6.5-1.4.8-2.8.8-4.4s-.3-2.9-.8-4.3c-.6-1.4-1.3-2.6-2.3-3.6-1-1.1-2.1-1.9-3.4-2.5s-2.7-.9-4.2-.9-3,.3-4.3.9-2.4,1.4-3.4,2.4-1.7,2.2-2.3,3.6c-.5,1.4-.8,2.8-.8,4.4s.3,3,.8,4.3c.6,1.4,1.3,2.6,2.3,3.6,1,1.1,2.1,1.9,3.4,2.5,1.5.6,2.9.9,4.3.9M400.4,97.3c-1.8,0-3.6-.4-5.2-1.1s-3-1.7-4.3-2.9c-1.2-1.2-2.2-2.7-2.9-4.3-.7-1.7-1-3.4-1-5.3s.3-3.6,1-5.3c.7-1.7,1.7-3.1,2.9-4.3,1.2-1.2,2.6-2.2,4.3-2.9,1.6-.7,3.3-1.1,5.2-1.1s3.6.4,5.2,1.1,3,1.7,4.3,2.9c1.2,1.2,2.2,2.7,2.9,4.3.7,1.7,1,3.4,1,5.3s-.3,3.6-1,5.3c-.7,1.7-1.7,3.1-2.9,4.3-1.2,1.2-2.6,2.2-4.3,2.9-1.6.8-3.3,1.1-5.2,1.1"/>
  <path class="st4" d="M418.7,76.2v-4.3c0-.4,0-.7-.1-1.2h2.4c0,.4.1.8.1,1.1s0,.7.1,1.1v3.2c.3-.6.7-1.2,1.3-1.9.5-.7,1.2-1.4,2-2s1.8-1.1,2.9-1.5,2.4-.6,3.9-.6,3.4.3,4.7.8c1.3.5,2.3,1.3,3.1,2.3.8,1,1.4,2.2,1.7,3.6.3,1.4.5,3,.5,4.7v15.2h-2.5v-14.4c0-1.9-.2-3.5-.5-4.8s-.8-2.3-1.5-3c-.7-.8-1.5-1.3-2.4-1.6-1-.3-2.1-.5-3.3-.5-1.7,0-3.1.3-4.3,1-1.2.7-2.2,1.5-3,2.6s-1.4,2.2-1.8,3.5-.6,2.5-.6,3.8v13.4h-2.5v-20.5h-.2Z"/>
  <path class="st4" d="M447,91.6c1.1,1.1,2.3,1.9,3.7,2.5,1.4.6,3.1.9,5,.9s2,0,3-.3c.9-.2,1.8-.5,2.5-.9s1.3-.9,1.7-1.5c.4-.6.6-1.3.6-2.1s-.2-1.7-.6-2.3c-.4-.6-.9-1.1-1.7-1.5-.7-.4-1.7-.7-2.8-1-1.1-.3-2.4-.6-3.8-.9-1.2-.3-2.3-.6-3.3-.9-1-.4-1.9-.8-2.6-1.3s-1.3-1.2-1.7-2c-.4-.8-.6-1.8-.6-3s.3-2.2.8-3.1,1.2-1.6,2.1-2.2,1.9-1,3-1.3,2.3-.4,3.6-.4c2,0,3.8.4,5.4,1.1,1.6.8,2.8,1.7,3.8,2.9l-1.7,1.6c-.9-1-1.9-1.8-3.1-2.4s-2.6-.9-4.3-.9-1.7,0-2.5.2-1.6.4-2.3.7c-.7.4-1.2.8-1.6,1.5-.4.6-.6,1.4-.6,2.5s.2,1.5.7,2.1,1.1,1,1.8,1.4c.8.4,1.6.7,2.6.9,1,.2,2,.5,2.9.7,1,.2,2.1.5,3.2.8s2,.8,2.9,1.3,1.6,1.2,2.1,2.1c.5.8.8,1.9.8,3.2s-.3,2.4-.9,3.4c-.6.9-1.4,1.7-2.4,2.3-1,.6-2.1,1.1-3.3,1.4-1.2.3-2.5.5-3.7.5-2.4,0-4.5-.4-6.2-1.1s-3.2-1.7-4.4-2.9l1.9-2h0Z"/>
  <path class="st4" d="M2,47.1c1.3,1.5,2.8,2.8,4.6,3.8s4,1.5,6.5,1.5,2.8-.2,4-.5c1.2-.3,2.3-.8,3.2-1.5.9-.7,1.6-1.5,2.1-2.5s.7-2.2.7-3.5-.3-2.6-.8-3.6-1.3-1.8-2.2-2.5c-.9-.7-1.9-1.2-3.1-1.6-1.1-.4-2.3-.8-3.5-1.1-1.4-.4-2.9-.8-4.3-1.3-1.4-.5-2.7-1.1-3.8-1.9-1.1-.8-2-1.7-2.7-2.9-.7-1.2-1-2.7-1-4.6s.3-2.5.8-3.7,1.3-2.2,2.3-3c1-.9,2.2-1.6,3.7-2.1,1.4-.5,3.1-.8,4.9-.8s3,.2,4.2.5,2.3.8,3.2,1.3c.9.5,1.7,1.1,2.3,1.7.6.6,1.1,1.2,1.6,1.7l-1.9,1.6c-.3-.5-.8-.9-1.3-1.4s-1.2-1-1.9-1.4c-.8-.4-1.6-.8-2.7-1.1-1-.3-2.2-.4-3.6-.4s-2.9.2-4,.6-2,1-2.7,1.6c-.7.7-1.2,1.4-1.6,2.3-.3.8-.5,1.7-.5,2.6,0,1.4.3,2.5.9,3.4s1.4,1.6,2.5,2.2c1,.6,2.1,1.1,3.4,1.4,1.3.4,2.5.7,3.8,1.1,1.3.3,2.6.8,3.9,1.3,1.3.5,2.5,1.2,3.5,2s1.9,1.9,2.5,3.2c.7,1.3,1,2.9,1,4.7s-.3,3.1-1,4.4c-.7,1.3-1.6,2.4-2.7,3.3-1.1.9-2.5,1.6-4.1,2.1s-3.3.7-5.1.7-3-.2-4.4-.5c-1.4-.2-2.6-.6-3.7-1.2-1.1-.5-2.1-1.2-2.9-1.9C1.2,50.5.5,49.8,0,49,0,49,2,47.1,2,47.1Z"/>
  <path class="st4" d="M53.3,50.1c-1.1,1.3-2.5,2.4-4.3,3.2-1.7.8-3.7,1.3-6,1.3s-3.6-.3-5.2-1c-1.6-.7-3-1.7-4.1-2.9-1.2-1.2-2.1-2.7-2.7-4.3-.6-1.7-1-3.5-1-5.4s.3-3.7,1-5.4,1.6-3.1,2.7-4.3c1.2-1.2,2.5-2.2,4.1-2.9,1.6-.7,3.3-1,5.2-1s4.2.4,5.8,1.2c1.6.8,3,1.9,4.1,3.4l-1.9,1.5c-.9-1.1-1.9-2-3.2-2.7s-2.9-1-4.8-1-2.9.3-4.1.9c-1.3.6-2.3,1.4-3.3,2.4-.9,1-1.6,2.2-2.1,3.6-.5,1.3-.8,2.8-.8,4.3s.3,3,.8,4.4,1.2,2.6,2.2,3.6c.9,1,2,1.8,3.3,2.4,1.3.6,2.6.9,4.1.9s3.5-.3,5-1c1.4-.7,2.6-1.6,3.5-2.7,0,0,1.7,1.5,1.7,1.5Z"/>
  <path class="st4" d="M57.5,16.4h2.5v16.9c.3-.6.7-1.2,1.3-1.9.5-.7,1.2-1.3,2.1-1.9.8-.6,1.8-1.1,2.9-1.5s2.3-.6,3.8-.6,3.4.3,4.7.8c1.3.5,2.3,1.3,3.1,2.3.8,1,1.4,2.2,1.7,3.6.3,1.4.5,3,.5,4.7v15.2h-2.5v-14.4c0-1.9-.2-3.5-.5-4.8s-.8-2.3-1.5-3c-.8-.8-1.6-1.3-2.6-1.6s-2.1-.5-3.3-.5c-1.7,0-3.1.3-4.3,1-1.2.7-2.2,1.5-3,2.6s-1.4,2.2-1.8,3.5c-.4,1.3-.6,2.5-.6,3.8v13.4h-2.5V16.4h0Z"/>
  <path class="st4" d="M97.9,52.3c1.5,0,2.9-.3,4.2-.9,1.3-.6,2.5-1.4,3.4-2.4,1-1,1.7-2.2,2.3-3.6.5-1.4.8-2.8.8-4.4s-.3-2.9-.8-4.3c-.6-1.4-1.3-2.6-2.3-3.6-1-1.1-2.1-1.9-3.4-2.5s-2.7-.9-4.2-.9-3,.3-4.3.9-2.4,1.4-3.4,2.4c-1,1-1.7,2.2-2.3,3.6-.5,1.4-.8,2.8-.8,4.4s.3,3,.8,4.3c.6,1.4,1.3,2.6,2.3,3.6,1,1.1,2.1,1.9,3.4,2.5,1.5.6,2.8.9,4.3.9M97.9,54.7c-1.8,0-3.6-.4-5.2-1.1-1.6-.7-3-1.7-4.3-2.9-1.2-1.2-2.2-2.7-2.9-4.3-.7-1.7-1-3.4-1-5.3s.3-3.6,1-5.3,1.7-3.1,2.9-4.3c1.2-1.2,2.6-2.2,4.3-2.9,1.6-.7,3.3-1.1,5.2-1.1s3.6.4,5.2,1.1,3,1.7,4.3,2.9c1.2,1.2,2.2,2.7,2.9,4.3.7,1.7,1,3.4,1,5.3s-.3,3.6-1,5.3-1.7,3.1-2.9,4.3c-1.2,1.2-2.6,2.2-4.3,2.9-1.6.7-3.4,1.1-5.2,1.1"/>
  <path class="st4" d="M128.1,52.3c1.5,0,2.9-.3,4.2-.9,1.3-.6,2.5-1.4,3.4-2.4,1-1,1.7-2.2,2.3-3.6.5-1.4.8-2.8.8-4.4s-.3-2.9-.8-4.3c-.6-1.4-1.3-2.6-2.3-3.6-1-1.1-2.1-1.9-3.4-2.5-1.3-.6-2.7-.9-4.2-.9s-3,.3-4.3.9-2.4,1.4-3.4,2.4c-1,1-1.7,2.2-2.3,3.6-.5,1.4-.8,2.8-.8,4.4s.3,3,.8,4.3c.6,1.4,1.3,2.6,2.3,3.6,1,1.1,2.1,1.9,3.4,2.5,1.5.6,2.9.9,4.3.9M128.1,54.7c-1.8,0-3.6-.4-5.2-1.1-1.6-.7-3-1.7-4.3-2.9-1.2-1.2-2.2-2.7-2.9-4.3-.7-1.7-1-3.4-1-5.3s.3-3.6,1-5.3,1.7-3.1,2.9-4.3c1.2-1.2,2.6-2.2,4.3-2.9,1.6-.7,3.3-1.1,5.2-1.1s3.6.4,5.2,1.1c1.6.7,3,1.7,4.3,2.9,1.2,1.2,2.2,2.7,2.9,4.3.7,1.7,1,3.4,1,5.3s-.3,3.6-1,5.3-1.7,3.1-2.9,4.3-2.6,2.2-4.3,2.9c-1.6.7-3.3,1.1-5.2,1.1"/>
  <rect class="st4" x="146.3" y="16.4" width="2.5" height="37.6"/>
  <path class="st4" d="M175.5,52.3c1.5,0,2.9-.3,4.2-.9,1.3-.6,2.5-1.4,3.4-2.4,1-1,1.7-2.2,2.3-3.6.5-1.4.8-2.8.8-4.4s-.3-2.9-.8-4.3c-.6-1.4-1.3-2.6-2.3-3.6-1-1.1-2.1-1.9-3.4-2.5-1.3-.6-2.7-.9-4.2-.9s-3,.3-4.3.9-2.4,1.4-3.4,2.4c-1,1-1.7,2.2-2.3,3.6-.5,1.4-.8,2.8-.8,4.4s.3,3,.8,4.3c.6,1.4,1.3,2.6,2.3,3.6,1,1.1,2.1,1.9,3.4,2.5,1.4.6,2.8.9,4.3.9M175.5,54.7c-1.8,0-3.6-.4-5.2-1.1-1.6-.7-3-1.7-4.3-2.9-1.2-1.2-2.2-2.7-2.9-4.3-.7-1.7-1-3.4-1-5.3s.3-3.6,1-5.3,1.7-3.1,2.9-4.3,2.6-2.2,4.3-2.9c1.6-.7,3.3-1.1,5.2-1.1s3.6.4,5.2,1.1c1.6.7,3,1.7,4.3,2.9,1.2,1.2,2.2,2.7,2.9,4.3.7,1.7,1,3.4,1,5.3s-.3,3.6-1,5.3-1.7,3.1-2.9,4.3-2.6,2.2-4.3,2.9-3.4,1.1-5.2,1.1"/>
  <path class="st4" d="M195.8,30.4h-5.2v-2.4h5.2v-3c0-3.1.7-5.4,2.1-7.1,1.4-1.7,3.4-2.5,5.9-2.5s3.1.3,4.2.8c1.1.6,2,1.3,2.8,2.1l-1.6,1.6c-.8-.8-1.6-1.4-2.4-1.7-.8-.4-1.7-.5-2.8-.5s-1.6.1-2.3.3c-.7.2-1.3.6-1.8,1.3-.5.6-.9,1.5-1.2,2.5-.3,1.1-.4,2.5-.4,4.1v2h8.6v2.4h-8.6v23.7h-2.5v-23.6Z"/>
  <path class="st4" d="M249.3,47.7c-.2.4-.6,1-1.3,1.7-.6.8-1.5,1.6-2.6,2.4-1.1.8-2.5,1.5-4.1,2.1s-3.5.9-5.7.9-5.2-.5-7.4-1.5-4.2-2.4-5.8-4.1c-1.6-1.8-2.8-3.9-3.7-6.3-.9-2.4-1.3-5-1.3-7.8s.4-5.3,1.3-7.7c.9-2.4,2.1-4.5,3.7-6.3,1.6-1.8,3.5-3.2,5.8-4.2,2.2-1,4.7-1.5,7.4-1.5s4.1.3,5.7.9c1.6.6,3,1.3,4.1,2.1,1.1.8,2,1.6,2.6,2.4s1,1.4,1.3,1.7l-2,1.4c-.2-.3-.6-.8-1.1-1.4-.5-.7-1.2-1.3-2.1-2-.9-.7-2.1-1.3-3.4-1.8-1.4-.5-3-.8-4.9-.8s-4.6.4-6.5,1.3-3.5,2.1-4.8,3.6-2.3,3.4-3,5.4c-.7,2.1-1,4.3-1,6.7s.4,4.7,1.1,6.7c.7,2.1,1.7,3.9,3,5.5s2.9,2.8,4.8,3.7c1.9.9,4.1,1.3,6.5,1.3s3.3-.3,4.7-.8c1.3-.5,2.5-1.1,3.4-1.8s1.7-1.3,2.2-2,.9-1.1,1.2-1.4l1.9,1.6h0Z"/>
  <path class="st4" d="M266.4,52.3c1.5,0,2.9-.3,4.2-.9,1.3-.6,2.5-1.4,3.4-2.4,1-1,1.7-2.2,2.3-3.6.5-1.4.8-2.8.8-4.4s-.3-2.9-.8-4.3c-.6-1.4-1.3-2.6-2.3-3.6-1-1.1-2.1-1.9-3.4-2.5s-2.7-.9-4.2-.9-3,.3-4.3.9-2.4,1.4-3.4,2.4c-1,1-1.7,2.2-2.3,3.6-.5,1.4-.8,2.8-.8,4.4s.3,3,.8,4.3c.6,1.4,1.3,2.6,2.3,3.6,1,1.1,2.1,1.9,3.4,2.5,1.5.6,2.9.9,4.3.9M266.4,54.7c-1.8,0-3.6-.4-5.2-1.1-1.6-.7-3-1.7-4.3-2.9-1.2-1.2-2.2-2.7-2.9-4.3-.7-1.7-1-3.4-1-5.3s.3-3.6,1-5.3,1.7-3.1,2.9-4.3c1.2-1.2,2.6-2.2,4.3-2.9,1.6-.7,3.3-1.1,5.2-1.1s3.6.4,5.2,1.1,3,1.7,4.3,2.9c1.2,1.2,2.2,2.7,2.9,4.3.7,1.7,1,3.4,1,5.3s-.3,3.6-1,5.3-1.7,3.1-2.9,4.3c-1.2,1.2-2.6,2.2-4.3,2.9-1.6.7-3.3,1.1-5.2,1.1"/>
  <path class="st4" d="M284.7,33.5v-4.3c0-.4,0-.7-.1-1.2h2.4c0,.4.1.8.1,1.1s0,.7.1,1.1v3.2c.3-.6.7-1.2,1.2-1.9.5-.7,1.2-1.4,2-2s1.7-1.1,2.8-1.6c1.1-.4,2.3-.6,3.8-.6,2.5,0,4.4.5,5.7,1.6,1.3,1.1,2.2,2.6,2.8,4.5h0c.3-.6.7-1.2,1.3-1.9.6-.7,1.3-1.4,2.2-2,.9-.6,1.9-1.2,3-1.6s2.4-.6,3.8-.6,3.2.3,4.4.8c1.2.5,2.1,1.3,2.8,2.3.7,1,1.2,2.2,1.5,3.6.3,1.4.5,3,.5,4.7v15.3h-2.5v-14.4c0-1.9-.1-3.5-.5-4.8-.3-1.3-.8-2.3-1.4-3-.6-.8-1.3-1.3-2.2-1.6-.8-.3-1.8-.5-3-.5s-2.5.3-3.6.8-2.1,1.2-3,2.1c-.8.9-1.5,1.9-2,3s-.7,2.3-.7,3.5v14.9h-2.5v-14.4c0-1.9-.2-3.5-.5-4.8s-.7-2.3-1.3-3c-.6-.8-1.3-1.3-2.1-1.6-.8-.3-1.8-.5-3-.5s-2.9.3-4.1,1-2.1,1.5-2.9,2.6c-.8,1.1-1.4,2.2-1.8,3.5s-.6,2.5-.6,3.8v13.4h-2.5v-20.5h-.1,0Z"/>
  <path class="st4" d="M333.2,49.5c.3.2.6.4,1.1.8.4.3,1,.6,1.7.9.7.3,1.5.6,2.3.8.9.2,1.9.3,3,.3s2.8-.2,4.1-.7c1.3-.5,2.4-1.2,3.3-2.1.9-.9,1.7-2.1,2.2-3.5s.8-3,.8-4.8-.2-2.9-.5-4.3c-.3-1.4-.9-2.6-1.6-3.7-.7-1-1.7-1.9-2.8-2.5-1.2-.6-2.6-.9-4.3-.9s-2.2.2-3.1.5-1.7.8-2.5,1.4c-.7.6-1.3,1.3-1.9,2-.5.8-.9,1.6-1.2,2.4-.3.7-.4,1.5-.5,2.4s-.1,1.9-.1,2.9c0,0,0,8.1,0,8.1ZM330.8,33.5v-4.3c0-.4,0-.7-.1-1.2h2.4c0,.4.1.8.1,1.1s0,.6.1,1c0,.3,0,.7.1,1.2v1.5c.2-.3.5-.8.9-1.4s1-1.2,1.8-1.8c.8-.6,1.7-1.1,2.8-1.6,1.1-.5,2.5-.7,4.1-.7s3.7.4,5.2,1.1,2.7,1.7,3.6,2.9c1,1.2,1.7,2.7,2.1,4.4.5,1.7.7,3.5.7,5.4s-.3,3.9-1,5.5c-.7,1.7-1.6,3.1-2.8,4.3-1.2,1.2-2.6,2.1-4.2,2.7-1.6.6-3.3,1-5.2,1s-3.4-.3-4.7-.8c-1.3-.5-2.4-1-3.4-1.5v12.9h-2.5v-31.7Z"/>
  <path class="st4" d="M359,28.1h2.5v14.4c0,1.9.2,3.5.5,4.8s.8,2.3,1.4,3c.6.8,1.4,1.3,2.4,1.6.9.3,2,.5,3.3.5s3-.3,4.2-1,2.2-1.5,3-2.6,1.3-2.2,1.7-3.5c.4-1.3.6-2.5.6-3.8v-13.4h2.5v24.8c0,.3,0,.7.1,1.2h-2.4c0-.4-.1-.8-.1-1.1s0-.7-.1-1.1v-3.2c-.3.6-.7,1.2-1.2,1.9s-1.2,1.4-2,2-1.7,1.1-2.8,1.6c-1.1.4-2.4.6-3.9.6s-3.4-.3-4.6-.8-2.2-1.3-3-2.3-1.3-2.2-1.6-3.6c-.3-1.4-.5-3-.5-4.7v-15.3Z"/>
  <path class="st4" d="M389.7,30.4h-5.2v-2.4h5.2v-8.6h2.5v8.6h8.6v2.4h-8.6v15c0,1.5.1,2.8.3,3.7.2.9.6,1.6,1,2.1s.9.8,1.5.9c.6,0,1.2.2,1.9.2s1.7-.2,2.4-.5c.7-.3,1.4-.9,2-1.7l1.6,1.5c-.8,1-1.6,1.7-2.6,2.3-1,.5-2.2.8-3.7.8s-2,0-2.8-.4c-.9-.2-1.6-.7-2.2-1.4s-1.1-1.5-1.4-2.6-.5-2.5-.5-4.3v-15.6h0Z"/>
  <path class="st4" d="M405.8,28.1h2.5v25.9h-2.5v-25.9ZM405.3,18.9h3.6v3.7h-3.6v-3.7Z"/>
  <path class="st4" d="M414.6,33.5v-4.3c0-.4,0-.7-.1-1.2h2.4c0,.4.1.8.1,1.1s0,.7.1,1.1v3.2c.3-.6.7-1.2,1.3-1.9.5-.7,1.2-1.4,2-2s1.8-1.1,2.9-1.6c1.1-.4,2.4-.6,3.9-.6s3.4.3,4.7.8c1.3.5,2.3,1.3,3.1,2.3.8,1,1.4,2.2,1.7,3.6.3,1.4.5,3,.5,4.7v15.3h-2.5v-14.4c0-1.9-.2-3.5-.5-4.8s-.8-2.3-1.5-3c-.7-.8-1.5-1.3-2.4-1.6-1-.3-2.1-.5-3.3-.5-1.7,0-3.1.3-4.3,1-1.2.7-2.2,1.5-3,2.6-.8,1.1-1.4,2.2-1.8,3.5s-.6,2.5-.6,3.8v13.4h-2.5v-20.5h-.2Z"/>
  <path class="st4" d="M462.9,30.9c-.6-.2-1.2-.4-1.9-.6-.6-.1-1.3-.3-2.2-.4-.8-.1-1.8-.2-2.9-.2-1.6,0-3.1.3-4.5.8s-2.6,1.2-3.7,2.2c-1.1,1-1.9,2.2-2.5,3.6-.6,1.4-.9,3.1-.9,4.9s.2,2.9.5,4.2.9,2.5,1.6,3.5,1.7,1.8,2.8,2.4c1.2.6,2.6.9,4.3.9s3.1-.3,4.2-.9c1.2-.6,2.1-1.4,2.9-2.3.8-.9,1.3-1.8,1.7-2.8.4-1,.5-1.8.5-2.4v-12.9h.1ZM445.2,61c.6.5,1.5,1,2.8,1.6s3,.9,5.1.9,3.4-.3,4.7-.8c1.2-.5,2.2-1.2,3-2.1.8-.9,1.3-1.9,1.6-3.1.3-1.2.5-2.5.5-3.9v-3.9c-.6,1-1.4,1.8-2.3,2.5-.8.6-1.8,1.2-3,1.7s-2.6.8-4.3.8-3.7-.3-5.2-1-2.7-1.6-3.6-2.8c-1-1.2-1.7-2.6-2.1-4.3-.5-1.6-.7-3.4-.7-5.3s.4-4,1.1-5.7,1.7-3.2,3-4.4c1.3-1.2,2.8-2.1,4.6-2.8,1.7-.7,3.6-1,5.7-1s3.7.2,5.3.6c1.7.4,3,.8,4,1.2v24.2c0,1.9-.2,3.7-.7,5.2-.5,1.6-1.2,2.9-2.2,3.9-1,1.1-2.3,1.9-3.8,2.5-1.6.6-3.4.9-5.7.9s-2.4,0-3.4-.3c-1-.2-1.9-.5-2.6-.8-.8-.3-1.4-.6-1.9-1-.5-.3-1-.6-1.3-.9l1.4-1.9Z"/>
</svg>